# xmcd CD database file
#
# Track frame offsets:
#	150
#	23182
#	42957
#	52729
#	62341
#	66199
#	80243
#	86633
#	100673
#	124100
#	135969
#	159840
#	179060
#	190796
#	213835
#	242504
#
# Disc length: 3669 seconds
#
# Revision: 0
# Processed by: cddbd v1.5.2PL0 Copyright (c) Steve Scherf et al.
# Submitted via: jetAudio 7
#
DISCID=ca0e5310
DTITLE=薛偉 - 鄕夢 Dreamland
DYEAR=1900
DGENRE=장르 없음
TTITLE0=江南春早
TTITLE1=夏夜
TTITLE2=新疆之春,鄕夢(組曲)
TTITLE3=江南
TTITLE4=笙舞
TTITLE5=思念
TTITLE6=馬車歌
TTITLE7=手鼓舞
TTITLE8=漁歌唱晩
TTITLE9=慶豊收
TTITLE10=海濱音詩
TTITLE11=牧歌
TTITLE12=舞曲
TTITLE13=思鄕曲
TTITLE14=東方之珠[Allegro con spirito]
TTITLE15=東方之珠[Theme and Variations]
EXTD=
EXTT0=
EXTT1=
EXTT2=
EXTT3=
EXTT4=
EXTT5=
EXTT6=
EXTT7=
EXTT8=
EXTT9=
EXTT10=
EXTT11=
EXTT12=
EXTT13=
EXTT14=
EXTT15=
PLAYORDER=
